<svg id="Layer_1" data-name="Layer 1" xmlns="http://www.w3.org/2000/svg" viewBox="0 0 1296 864"><defs><style>.cls-1{fill:#1a110e;}</style></defs><path d="M1256.27,397.38c-19.81-14.4-46.6-17.62-73.49-8.89-27.75,9-51.8,29.51-67.76,54.43a67.15,67.15,0,0,0-34.35-9.39c-34.43,0-50.81,16.82-59.06,36.37a74.86,74.86,0,0,0-34.12-9.44V317.75c0-26-10.84-48.77-29.72-62.49-19.81-14.4-46.63-17.65-73.5-8.9-27.68,9-51.68,29.4-67.63,54.24-19.76-14.08-46.31-17.21-73-8.55-28.61,9.3-53.34,30.75-69.24,56.72C656,338.42,632.16,337.2,611,346.38c-53.8,23.34-49.93,89-46.81,141.77.69,11.82,1.4,23.59,1.51,34.54,0,125.32-50.24,136.79-98.8,147.88-6.39,1.46-12.52,2.86-18.26,4.43-9.43,2.59-20.4.23-28.67-6.08-3-2.26-9.85-8.46-9.85-17.12V600.73c1-.77,1.95-1.62,3.09-2.35l-3.09-4.81v-.51l3.4,5.12c4.88-3.23,15.34-8.35,26.42-13.77,45-22,106.64-52.19,110.42-99,.66-8.11.57-14.37.35-25.74-.54-26.6-11.44-48.79-30.7-62.49-19.88-14.14-45.63-17.09-72.51-8.39-49.16,16-87.68,67.39-87.68,117.06v74.5c-18.12,23.93-23.21,52.65-27.39,77.08-6.84,39.88-12.41,63-47.47,75.73-32.41,11.74-54.45,10.44-72.5,2.7,21.61-62.42,21.54-140.27,21.49-205,0-13.12,0-25.8.15-38.26l-.59-136.22c0-45.86,17.73-74.68,52.69-85.65,21.22-6.68,40.28,5.55,48.61,31.11l46.27-27.28c-16.89-51.79-62.24-66.85-109.94-51.82-32.84,10.31-87.92,41.38-87.92,133.74l.58,135.89c-.16,12.23-.15,25.15-.14,38.53.05,57.46.1,122.49-14.25,173.9-22.09-19.12-49.62-40.57-89.69-28.53C28.51,691.73,8.49,737.7,11.54,773.88c2,23.77,13.5,44.78,31.49,57.66A72.2,72.2,0,0,0,85.1,844.86a76.74,76.74,0,0,0,18.58-2.31c40.08-10,67.84-32.14,87.06-61.44,27.21,12.17,62.79,16.9,111.33-.64,49.18-17.79,65.79-51.58,74-84.68a79.89,79.89,0,0,0,13.38,13.1,84.81,84.81,0,0,0,51.3,17.44,80.28,80.28,0,0,0,21.15-2.81c5.09-1.39,10.54-2.63,16.2-3.92C529.66,707.82,616,688.12,616,522.43c-.13-12-.86-24.6-1.61-37.24-2.88-48.79-3.36-84,16.62-92.67,6.74-2.92,15-2.89,19.6.11,3.54,2.3,5.36,7.15,5.41,14.38h.15c0,.7-.19,1.4-.19,2.1V644l50.29-19.5V409.11c0-27.72,24.73-60.06,52.93-69.22,11.43-3.71,21.79-3.08,28.4,1.73,7.43,5.4,9,14.84,9,21.81V598.29l50.29-19.5V363.43c0-27.71,24.73-60.07,52.92-69.23,11.42-3.72,21.79-3.08,28.4,1.74,7.42,5.39,9,14.84,9,21.81v154.7c-40.56,21.12-70.3,66.07-70.3,109.7V733.22c0,26,10.83,48.78,29.71,62.5,12.48,9.07,27.74,13.71,44,13.71a95.51,95.51,0,0,0,29.45-4.83c49.16-16,87.68-67.4,87.68-117.06V547.75c2.93-10.86,4-21.72,4.88-30.22,3.33-33.7,6.15-33.7,18-33.7,14.44,0,14.44,12.11,14.44,16.09V734.5L1145.4,715V505.56c0-27.72,24.73-60.07,52.92-69.23,11.41-3.72,21.76-3.09,28.4,1.74,7.42,5.39,9,14.84,9,21.81V694.46L1286,675V459.88C1286,433.88,1275.16,411.1,1256.27,397.38ZM410.13,505.87c0-27.72,24.72-60.06,52.92-69.22A45.28,45.28,0,0,1,477,434.23c5.47,0,10.21,1.32,13.9,3.95,6,4.25,9.37,12.24,9.59,23.24.17,8.51.31,13.5-.2,20-1.48,18.23-60.27,47-82.41,57.84L410.13,543ZM91.49,793.76c-7.2,1.79-13.84.71-19.2-3.13-6.08-4.35-9.85-11.8-10.62-21-.13-1.41-2.53-34.61,32.55-45.16a27.7,27.7,0,0,1,8.1-1.3c10.49,0,19.87,7.2,37.74,22.78,2.63,2.3,5.38,4.7,8.27,7.14C135,773,116.69,787.47,91.49,793.76Zm916-257.3v3.79c-2,3.5-4.55,3.67-8.55,3.79-1.84.05-4-.1-4.65-.73-4.27-4.14-5.87-17.94-6.46-32.29,4.06.5,7.79,1.55,10.67,3.64C1005.93,520.05,1007.5,529.49,1007.5,536.46Zm-52.93,220.3c-11.42,3.7-21.79,3.09-28.4-1.73-7.42-5.39-9-14.84-9-21.81V582.15c0-16.6,9-34.78,22.14-48.72,2.48,18,7.85,34.25,20,46,7.39,7.16,20.71,15.38,41.24,14.9,2.46-.08,4.7-.36,7-.62v93.84C1007.5,715.25,982.77,747.6,954.57,756.76Z"/><path class="cls-1" d="M1215.2,174.57c14.61-2.54,29-6.61,43.42-10-12.38-6.69-24.79-9.94-37.28-12.83-24-5.56-23.93-5.42-13.7-28.77,2.23-5.08,6.9-9.8,4.16-17.44-6.24,2.74-12.51,4.72-18,8-16.51,10-22.41,6.11-23.11-13.51-.84-23.77-5-47.43-7.87-71.12-.46-3.84-.6-9.24-5.24-9.62-6.93-.57-5.74,5.7-6.13,10.07-.16,1.73-.32,3.46-.47,5.19-1.07,12.12-2.09,24.25-3.13,36.37-1.61,9.53-3.34,19-4.85,28.58-.22,1.36-.43,2.72-.63,4.09-.08.55-.16,1.1-.22,1.66,0,.22-.06.44-.08.67,0,.44-.1.89-.16,1.33,0,.22,0,.44-.08.66s0,.22,0,.33c-.7,5.5-2,10.51-9.81,11.39a6.31,6.31,0,0,0-3.27-1,4.34,4.34,0,0,0-.51,0,12.65,12.65,0,0,0-1.53-1.78c-3-2.83-6.9-3.78-10.81-4.8a4.28,4.28,0,0,0-2.89-1.52l-.51,0c-3.31-3-8.72-7.79-11.21-3.89a7.83,7.83,0,0,0-.93,2,5.12,5.12,0,0,0-.15.56,5.93,5.93,0,0,0-.12.83c-.36,4.73,4.57,8.88,7.68,12.86q3.93,11.74,7.87,23.51c-16,4.92-32.88,6.8-50.84,12.78-4.15,1.38-8.35,3-12.61,4.88,18.86,4.21,33.6,7.82,48.47,10.73,11.93,2.34,18.86,5.89,9.83,19.27-2.56,3.78-8.89,8.58-5,13.73s12,5.31,16.68,2.75c19.92-10.79,18.91,2.64,21.64,15.93,7,34.06-1,70.27,14.79,104.2,3.55-30.91,6.76-60.56,10.39-90.17,4.27-34.91,4.42-34.87,38.07-22.85,1.69.6,3.72.28,7.19.49-3.58-8.09-6.19-15.43-9.93-22.13C1197,183,1201.05,177,1215.2,174.57Z"/></svg>